<svg width="54" height="45" viewBox="0 0 54 45" fill="none" xmlns="http://www.w3.org/2000/svg">
<g clip-path="url(#clip0_20_10)">
<path d="M34.875 11.593C37.35 11.593 39.375 9.61738 39.375 7.20274C39.375 4.78811 37.35 2.8125 34.875 2.8125C32.4 2.8125 30.375 4.78811 30.375 7.20274C30.375 9.61738 32.4 11.593 34.875 11.593ZM11.25 25.8613C4.95 25.8613 0 30.6905 0 36.8369C0 42.9832 4.95 47.8125 11.25 47.8125C17.55 47.8125 22.5 42.9832 22.5 36.8369C22.5 30.6905 17.55 25.8613 11.25 25.8613ZM11.25 44.5198C6.975 44.5198 3.375 41.0076 3.375 36.8369C3.375 32.6662 6.975 29.154 11.25 29.154C15.525 29.154 19.125 32.6662 19.125 36.8369C19.125 41.0076 15.525 44.5198 11.25 44.5198ZM24.3 22.5686L29.7 17.3003L31.5 19.0564C33.885 21.3832 36.855 22.9637 40.41 23.4905C41.76 23.6881 42.975 22.6345 42.975 21.2954C42.975 20.2198 42.1425 19.2979 41.0625 19.1223C38.565 18.7271 36.5175 17.5637 34.875 15.9832L30.6 11.8125C29.475 10.9345 28.35 10.4954 27 10.4954C25.65 10.4954 24.525 10.9345 23.85 11.8125L17.55 17.9588C16.65 18.8369 16.2 19.9345 16.2 21.032C16.2 22.3491 16.65 23.4466 17.55 24.1052L24.75 30.2515V39.032C24.75 40.2393 25.7625 41.2271 27 41.2271C28.2375 41.2271 29.25 40.2393 29.25 39.032V29.3735C29.25 28.232 28.8 27.1564 28.0125 26.3442L24.3 22.5686ZM42.75 25.8613C36.45 25.8613 31.5 30.6905 31.5 36.8369C31.5 42.9832 36.45 47.8125 42.75 47.8125C49.05 47.8125 54 42.9832 54 36.8369C54 30.6905 49.05 25.8613 42.75 25.8613ZM42.75 44.5198C38.475 44.5198 34.875 41.0076 34.875 36.8369C34.875 32.6662 38.475 29.154 42.75 29.154C47.025 29.154 50.625 32.6662 50.625 36.8369C50.625 41.0076 47.025 44.5198 42.75 44.5198Z" fill="#FF0000"/>
</g>
<defs>
<clipPath id="clip0_20_10">
<rect width="54" height="45" fill="white"/>
</clipPath>
</defs>
</svg>
