<svg width="71" height="73" viewBox="0 0 71 73" fill="none" xmlns="http://www.w3.org/2000/svg">
<path fill-rule="evenodd" clip-rule="evenodd" d="M35.4167 72.5C54.9773 72.5 70.8333 56.2709 70.8333 36.25C70.8333 16.2291 54.9773 0 35.4167 0C15.856 0 0 16.2291 0 36.25C0 56.2709 15.856 72.5 35.4167 72.5ZM47.94 23.432C48.2693 23.7687 48.5305 24.1685 48.7088 24.6085C48.887 25.0486 48.9787 25.5203 48.9787 25.9967C48.9787 26.4731 48.887 26.9448 48.7088 27.3848C48.5305 27.8249 48.2693 28.2247 47.94 28.5614L40.4246 36.25L47.94 43.9386C48.6046 44.6188 48.9779 45.5414 48.9779 46.5033C48.9779 47.4653 48.6046 48.3878 47.94 49.068C47.2754 49.7482 46.3741 50.1303 45.4343 50.1303C44.4944 50.1303 43.5931 49.7482 42.9285 49.068L35.4167 41.3757L27.9048 49.068C27.5757 49.4048 27.1851 49.672 26.7552 49.8542C26.3252 50.0365 25.8644 50.1303 25.3991 50.1303C24.9337 50.1303 24.4729 50.0365 24.043 49.8542C23.613 49.672 23.2224 49.4048 22.8933 49.068C22.5643 48.7312 22.3033 48.3314 22.1252 47.8913C21.9471 47.4513 21.8554 46.9796 21.8554 46.5033C21.8554 46.027 21.9471 45.5554 22.1252 45.1153C22.3033 44.6753 22.5643 44.2754 22.8933 43.9386L30.4088 36.25L22.8933 28.5614C22.2288 27.8807 21.8556 26.9577 21.8559 25.9954C21.8563 25.0331 22.2301 24.1104 22.8951 23.4302C23.5601 22.75 24.4619 22.3681 25.4021 22.3684C26.3422 22.3687 27.2438 22.7513 27.9083 23.432L35.4167 31.1243L42.9285 23.432C43.2575 23.095 43.6481 22.8276 44.078 22.6452C44.508 22.4627 44.9688 22.3688 45.4343 22.3688C45.8997 22.3688 46.3606 22.4627 46.7905 22.6452C47.2205 22.8276 47.6111 23.095 47.94 23.432Z" fill="#FF0000"/>
</svg>
