<svg width="48" height="46" viewBox="0 0 48 46" fill="none" xmlns="http://www.w3.org/2000/svg">
<path d="M38.7179 37.6194C38.4293 37.3569 38.2557 36.9979 38.2326 36.616C38.2094 36.2341 38.3386 35.8581 38.5935 35.565C40.3701 33.5785 41.7105 31.2653 42.5338 28.7651C43.3571 26.265 43.6461 23.6299 43.3835 21.019C42.7685 16.1359 40.2618 11.6575 36.3661 8.4818C32.4704 5.30607 27.4737 3.66779 22.3778 3.89545C17.282 4.12311 12.4637 6.19988 8.88923 9.70935C5.31475 13.2188 3.24828 17.9015 3.10418 22.8185C3.10715 27.5083 4.87553 32.0376 8.08078 35.565C8.32622 35.8515 8.45258 36.2158 8.43534 36.587C8.4181 36.9583 8.25849 37.3102 7.98746 37.5744C7.83425 37.7227 7.65055 37.8383 7.4482 37.914C7.24584 37.9896 7.0293 38.0236 6.81251 38.0137C6.59571 38.0038 6.38346 37.9503 6.18941 37.8566C5.99537 37.7628 5.82381 37.631 5.68579 37.4695C1.87033 33.2382 -0.155855 27.7784 0.00936404 22.1737C0.0980432 16.208 2.64083 10.5206 7.07834 6.36261C11.5159 2.20467 17.4846 -0.0831952 23.6715 0.0023135C29.8584 0.0878222 35.7567 2.5397 40.0688 6.81857C44.3809 11.0974 46.7536 16.8528 46.6649 22.8185C46.6777 28.2178 44.6611 33.4387 40.9885 37.5144C40.8506 37.6712 40.6808 37.799 40.4896 37.8898C40.2983 37.9806 40.0898 38.0326 39.8768 38.0424C39.6639 38.0523 39.4512 38.0198 39.2518 37.947C39.0524 37.8743 38.8707 37.7628 38.7179 37.6194Z" fill="#0012FF"/>
<path d="M23.3216 28.0671C22.0912 28.0671 20.8885 27.7153 19.8655 27.0562C18.8425 26.3971 18.0452 25.4602 17.5744 24.3642C17.1035 23.2681 16.9803 22.0621 17.2204 20.8985C17.4604 19.7349 18.0529 18.6661 18.9229 17.8273C19.7928 16.9884 20.9013 16.4171 22.108 16.1856C23.3147 15.9542 24.5655 16.073 25.7022 16.527C26.8389 16.981 27.8104 17.7498 28.4939 18.7362C29.1775 19.7226 29.5423 20.8824 29.5423 22.0687C29.5423 23.6596 28.8869 25.1853 27.7203 26.3102C26.5537 27.4351 24.9714 28.0671 23.3216 28.0671ZM23.3216 19.0695C22.7064 19.0695 22.1051 19.2454 21.5936 19.575C21.0821 19.9046 20.6834 20.373 20.448 20.921C20.2126 21.469 20.151 22.072 20.271 22.6538C20.391 23.2356 20.6872 23.77 21.1222 24.1895C21.5572 24.6089 22.1114 24.8945 22.7148 25.0103C23.3181 25.126 23.9435 25.0666 24.5119 24.8396C25.0802 24.6126 25.566 24.2282 25.9078 23.735C26.2495 23.2418 26.432 22.6619 26.432 22.0687C26.432 21.2733 26.1043 20.5104 25.521 19.948C24.9376 19.3855 24.1465 19.0695 23.3216 19.0695Z" fill="#0012FF"/>
<path d="M23.3216 43.8127C22.9091 43.8127 22.5136 43.6547 22.2219 43.3735C21.9303 43.0923 21.7664 42.7108 21.7664 42.3131V27.3173H24.8768V42.3131C24.8768 42.7108 24.7129 43.0923 24.4213 43.3735C24.1296 43.6547 23.734 43.8127 23.3216 43.8127Z" fill="#0012FF"/>
<path d="M29.3868 41.5633H16.9453C16.0864 41.5633 15.3901 42.2347 15.3901 43.0629C15.3901 43.8911 16.0864 44.5625 16.9453 44.5625H29.3868C30.2457 44.5625 30.942 43.8911 30.942 43.0629C30.942 42.2347 30.2457 41.5633 29.3868 41.5633Z" fill="#0012FF"/>
<path d="M11.5488 32.041C9.58264 29.9091 8.28792 27.2807 7.81665 24.4641C7.34538 21.6476 7.71712 18.7599 8.88823 16.1399C10.0593 13.52 11.9812 11.2765 14.4283 9.67292C16.8754 8.06929 19.7461 7.17203 22.7035 7.08646C25.6609 7.00089 28.5822 7.73056 31.1246 9.18983C33.667 10.6491 35.725 12.7774 37.0569 15.3249C38.3888 17.8724 38.9394 20.7335 38.6442 23.5722C38.3489 26.4109 37.2199 29.1095 35.3898 31.3512C35.2541 31.5195 35.0827 31.6581 34.887 31.7575C34.6913 31.8569 34.4759 31.915 34.2551 31.9277C34.0343 31.9405 33.8133 31.9077 33.6067 31.8316C33.4001 31.7554 33.2127 31.6376 33.0571 31.4861C32.8063 31.231 32.6564 30.899 32.6337 30.5482C32.611 30.1973 32.7168 29.8499 32.9326 29.5667C34.3989 27.7768 35.3056 25.621 35.5465 23.352C35.7873 21.083 35.3524 18.7948 34.2926 16.7556C33.2329 14.7165 31.5922 13.0109 29.563 11.8388C27.5337 10.6667 25.2 10.0768 22.8354 10.138C20.4709 10.1993 18.1734 10.9093 16.2123 12.1848C14.2513 13.4602 12.708 15.2483 11.7634 17.3394C10.8187 19.4305 10.5118 21.7379 10.8788 23.9912C11.2457 26.2445 12.2711 28.3502 13.835 30.0615C14.0843 30.3352 14.2218 30.687 14.2218 31.0512C14.2218 31.4155 14.0843 31.7673 13.835 32.041C13.6893 32.1932 13.5126 32.3147 13.3158 32.3978C13.1191 32.4808 12.9067 32.5237 12.6919 32.5237C12.4771 32.5237 12.2647 32.4808 12.0679 32.3978C11.8712 32.3147 11.6945 32.1932 11.5488 32.041Z" fill="#0012FF"/>
</svg>
