<svg width="48" height="50" viewBox="0 0 48 50" fill="none" xmlns="http://www.w3.org/2000/svg">
<path d="M21.3333 24.7487V37.4994C21.3333 38.1624 21.6143 38.7984 22.1144 39.2672C22.6145 39.7361 23.2928 39.9995 24 39.9995C24.7072 39.9995 25.3855 39.7361 25.8856 39.2672C26.3857 38.7984 26.6667 38.1624 26.6667 37.4994V24.7487C29.9041 24.1291 32.7809 22.4046 34.7392 19.9095C36.6975 17.4144 37.5979 14.3264 37.2658 11.2442C36.9337 8.16205 35.3928 5.30529 32.9417 3.22777C30.4907 1.15026 27.3042 0 24 0C20.6958 0 17.5093 1.15026 15.0583 3.22777C12.6072 5.30529 11.0663 8.16205 10.7342 11.2442C10.4021 14.3264 11.3025 17.4144 13.2608 19.9095C15.2191 22.4046 18.0959 24.1291 21.3333 24.7487ZM24 4.9977C25.5823 4.9977 27.129 5.43759 28.4446 6.26175C29.7602 7.0859 30.7855 8.2573 31.391 9.62781C31.9965 10.9983 32.155 12.5064 31.8463 13.9613C31.5376 15.4163 30.7757 16.7527 29.6569 17.8017C28.538 18.8506 27.1126 19.5649 25.5607 19.8544C24.0089 20.1438 22.4003 19.9952 20.9385 19.4275C19.4767 18.8599 18.2273 17.8985 17.3482 16.6651C16.4692 15.4316 16 13.9815 16 12.4981C16 10.5089 16.8429 8.60111 18.3431 7.19452C19.8434 5.78792 21.8783 4.9977 24 4.9977ZM35.2267 31.049C34.8765 30.9801 34.5152 30.9765 34.1635 31.0384C33.8119 31.1004 33.4767 31.2266 33.177 31.4101C32.8774 31.5935 32.6192 31.8304 32.4173 32.1073C32.2153 32.3843 32.0735 32.6958 32 33.0241C31.9265 33.3525 31.9226 33.6911 31.9887 34.0209C32.0548 34.3506 32.1894 34.6649 32.3851 34.9458C32.5807 35.2267 32.8334 35.4687 33.1288 35.6581C33.4242 35.8474 33.7565 35.9803 34.1067 36.0493C40.16 37.1743 42.6667 39.1994 42.6667 39.9995C42.6667 41.4496 36.1333 44.9997 24 44.9997C11.8667 44.9997 5.33333 41.4496 5.33333 39.9995C5.33333 39.1994 7.84 37.1743 13.8933 35.9493C14.2435 35.8803 14.5758 35.7474 14.8712 35.5581C15.1666 35.3687 15.4193 35.1267 15.6149 34.8458C15.8106 34.5648 15.9452 34.2506 16.0113 33.9209C16.0774 33.5911 16.0735 33.2525 16 32.9241C15.9265 32.5958 15.7847 32.2843 15.5827 32.0073C15.3808 31.7304 15.1226 31.4935 14.823 31.31C14.5233 31.1266 14.1881 31.0004 13.8365 30.9384C13.4848 30.8765 13.1235 30.8801 12.7733 30.949C4.66667 32.6991 0 35.9743 0 39.9995C0 46.5748 12.08 50 24 50C35.92 50 48 46.5748 48 39.9995C48 35.9743 43.3333 32.6991 35.2267 31.049Z" fill="black"/>
</svg>
