<svg width="54" height="45" viewBox="0 0 54 45" fill="none" xmlns="http://www.w3.org/2000/svg">
<path d="M34.875 8.78049C37.35 8.78049 39.375 6.80488 39.375 4.39024C39.375 1.97561 37.35 0 34.875 0C32.4 0 30.375 1.97561 30.375 4.39024C30.375 6.80488 32.4 8.78049 34.875 8.78049ZM11.25 23.0488C4.95 23.0488 0 27.878 0 34.0244C0 40.1707 4.95 45 11.25 45C17.55 45 22.5 40.1707 22.5 34.0244C22.5 27.878 17.55 23.0488 11.25 23.0488ZM11.25 41.7073C6.975 41.7073 3.375 38.1951 3.375 34.0244C3.375 29.8537 6.975 26.3415 11.25 26.3415C15.525 26.3415 19.125 29.8537 19.125 34.0244C19.125 38.1951 15.525 41.7073 11.25 41.7073ZM24.3 19.7561L29.7 14.4878L31.5 16.2439C33.885 18.5707 36.855 20.1512 40.41 20.678C41.76 20.8756 42.975 19.822 42.975 18.4829C42.975 17.4073 42.1425 16.4854 41.0625 16.3098C38.565 15.9146 36.5175 14.7512 34.875 13.1707L30.6 9C29.475 8.12195 28.35 7.68293 27 7.68293C25.65 7.68293 24.525 8.12195 23.85 9L17.55 15.1463C16.65 16.0244 16.2 17.122 16.2 18.2195C16.2 19.5366 16.65 20.6341 17.55 21.2927L24.75 27.439V36.2195C24.75 37.4268 25.7625 38.4146 27 38.4146C28.2375 38.4146 29.25 37.4268 29.25 36.2195V26.561C29.25 25.4195 28.8 24.3439 28.0125 23.5317L24.3 19.7561ZM42.75 23.0488C36.45 23.0488 31.5 27.878 31.5 34.0244C31.5 40.1707 36.45 45 42.75 45C49.05 45 54 40.1707 54 34.0244C54 27.878 49.05 23.0488 42.75 23.0488ZM42.75 41.7073C38.475 41.7073 34.875 38.1951 34.875 34.0244C34.875 29.8537 38.475 26.3415 42.75 26.3415C47.025 26.3415 50.625 29.8537 50.625 34.0244C50.625 38.1951 47.025 41.7073 42.75 41.7073Z" fill="#595BD4"/>
</svg>
