<svg width="55" height="55" viewBox="0 0 55 55" fill="none" xmlns="http://www.w3.org/2000/svg">
<path d="M11.2269 2.96657C3.19688 13.8359 3.19688 27.5103 11.2269 38.3763L13.9906 36.3344C6.77188 26.5547 6.77188 14.7916 13.9906 5.00844L11.2269 2.96657ZM47.245 2.96657L44.4778 5.00844C51.7 14.7916 51.7 26.5547 44.4778 36.3344L47.245 38.3763C55.2681 27.5103 55.2681 13.8325 47.245 2.97001V2.96657ZM17.0844 8.52501C13.8681 11.7513 12.062 16.121 12.062 20.6766C12.062 25.2321 13.8681 29.6019 17.0844 32.8281L19.5147 30.3978C18.235 29.1229 17.2197 27.6079 16.5269 25.9397C15.8341 24.2715 15.4775 22.4829 15.4775 20.6766C15.4775 18.8702 15.8341 17.0816 16.5269 15.4134C17.2197 13.7452 18.235 12.2302 19.5147 10.9553L17.0844 8.52501ZM41.3944 8.52501L38.9641 10.9553C40.2437 12.2302 41.2591 13.7452 41.9519 15.4134C42.6447 17.0816 43.0013 18.8702 43.0013 20.6766C43.0013 22.4829 42.6447 24.2715 41.9519 25.9397C41.2591 27.6079 40.2437 29.1229 38.9641 30.3978L41.3944 32.8281C44.6107 29.6019 46.4167 25.2321 46.4167 20.6766C46.4167 16.121 44.6107 11.7513 41.3944 8.52501ZM29.2359 10.3641C23.5606 10.3641 18.9234 15.0013 18.9234 20.6766C18.9324 23.1071 19.7995 25.4563 21.3719 27.3098C22.9442 29.1633 25.1206 30.4018 27.5172 30.8069V48.125H30.9547V30.8C35.8119 29.975 39.5484 25.7572 39.5484 20.6731C39.5484 14.9978 34.9078 10.3606 29.2359 10.3606V10.3641Z" fill="#FF0000"/>
</svg>
