<svg width="45" height="55" viewBox="0 0 45 55" fill="none" xmlns="http://www.w3.org/2000/svg">
<path d="M22.5 0C10.0755 0 0 9.25964 0 20.68C0 32.1004 22.5 55 22.5 55C22.5 55 45 32.1004 45 20.68C45 9.25964 34.9245 0 22.5 0ZM22.5 11.4911C24.4888 11.4911 26.3962 12.2169 27.8029 13.5091C29.2095 14.8012 30.0004 16.5539 30.0015 18.3818C30.0015 20.2104 29.2112 21.964 27.8044 23.257C26.3976 24.55 24.4895 25.2764 22.5 25.2764C20.5105 25.2764 18.6024 24.55 17.1956 23.257C15.7888 21.964 14.9985 20.2104 14.9985 18.3818C14.9996 16.5539 15.7905 14.8012 17.1971 13.5091C18.6038 12.2169 20.5112 11.4911 22.5 11.4911Z" fill="#0012FF"/>
</svg>
